<svg width="55" height="52" viewBox="0 0 55 52" fill="none" xmlns="http://www.w3.org/2000/svg">
<g filter="url(#filter0_i_2_297)">
<path d="M45.4946 47.48L23.8339 47.48L-3.32334e-05 25.8631L23.8339 4.24629L41.3588 4.2463L33.5006 25.8631L45.4946 47.48Z" fill="url(#paint0_linear_2_297)"/>
</g>
<path d="M24.1319 5.01832L40.2567 5.01833L32.775 25.5994L32.6548 25.93L32.8255 26.2377L44.1834 46.708L24.1319 46.7079L1.14914 25.8631L24.1319 5.01832Z" stroke="#E6E6E6" stroke-width="1.54406"/>
<path d="M36.173 0.579077L53.2927 0.579079L42.2762 25.63L42.1737 25.8631L42.2762 26.0962L53.2928 51.1471L36.173 51.1471L15.4175 25.8631L36.173 0.579077Z" fill="url(#paint1_linear_2_297)" stroke="#E6E6E6" stroke-width="1.15805"/>
<defs>
<filter id="filter0_i_2_297" x="0" y="-2.29476" width="45.4946" height="49.7747" filterUnits="userSpaceOnUse" color-interpolation-filters="sRGB">
<feFlood flood-opacity="0" result="BackgroundImageFix"/>
<feBlend mode="normal" in="SourceGraphic" in2="BackgroundImageFix" result="shape"/>
<feColorMatrix in="SourceAlpha" type="matrix" values="0 0 0 0 0 0 0 0 0 0 0 0 0 0 0 0 0 0 127 0" result="hardAlpha"/>
<feOffset dy="-6.5411"/>
<feGaussianBlur stdDeviation="3.27055"/>
<feComposite in2="hardAlpha" operator="arithmetic" k2="-1" k3="1"/>
<feColorMatrix type="matrix" values="0 0 0 0 0.680784 0 0 0 0 0.680784 0 0 0 0 0.680784 0 0 0 1 0"/>
<feBlend mode="normal" in2="shape" result="effect1_innerShadow_2_297"/>
</filter>
<linearGradient id="paint0_linear_2_297" x1="136.07" y1="47.48" x2="136.07" y2="4.2463" gradientUnits="userSpaceOnUse">
<stop stop-color="#F3F3F3"/>
<stop offset="1" stop-color="#B6B6B6"/>
</linearGradient>
<linearGradient id="paint1_linear_2_297" x1="34.4241" y1="51.7261" x2="34.4241" y2="5.16787e-05" gradientUnits="userSpaceOnUse">
<stop stop-color="#2B2B2B"/>
<stop offset="1" stop-color="#202020"/>
</linearGradient>
</defs>
</svg>
