<svg width="38" height="26" viewBox="0 0 38 26" fill="none" xmlns="http://www.w3.org/2000/svg">
<path d="M8.4513 20.7213C16.6357 23.9154 23.6006 24.5375 31.4933 19.5659C31.4354 19.6527 29.8742 21.9657 25.7685 23.1511C26.6359 24.3365 27.8214 25.6954 27.8214 25.6954C30.4525 25.6954 33.0257 24.9437 35.2519 23.498C36.9867 22.3415 37.9697 20.3465 37.7673 18.2648C37.4204 14.7085 36.5818 11.239 35.2808 7.91406C33.6328 3.57716 29.6718 0.570187 25.0746 0.136462C24.6698 0.107536 24.3807 0.107536 24.2073 0.107536L23.7447 0.570101C29.0357 2.07359 31.6668 4.41551 31.7246 4.50229C23.6001 0.396627 14.001 0.338861 5.81865 4.32882C5.81865 4.32882 8.42082 1.75557 14.1744 0.396628L13.8275 0.0496826C13.2203 0.0496826 12.642 0.107535 12.0349 0.194229C7.7847 0.917046 4.22847 3.83724 2.69605 7.85613C1.36604 11.3257 0.498677 14.9687 0.180658 18.6695C0.00718537 20.6356 0.932402 22.5728 2.55151 23.7004C4.69103 25.1171 7.23535 25.8689 9.8086 25.8689C9.8086 25.8689 10.8494 24.5099 11.8904 23.2956C7.9871 22.1391 6.39692 19.8261 6.36799 19.7393L7.10257 20.1144C7.5417 20.3388 7.99191 20.542 8.4513 20.7213ZM12.9891 18.207C11.1097 18.1491 9.63513 16.5589 9.69298 14.6507C9.75084 12.8581 11.1965 11.4124 12.9891 11.3546C14.8684 11.4124 16.343 13.0026 16.2851 14.9109C16.1983 16.7036 14.7816 18.1492 12.9891 18.207ZM24.7854 18.207C22.9061 18.1491 21.4315 16.5589 21.4894 14.6507C21.5472 12.8581 22.9929 11.4124 24.7854 11.3546C26.6648 11.4124 28.1394 13.0026 28.0815 14.9109C28.0238 16.7036 26.578 18.1492 24.7854 18.207Z" fill="white"/>
<path d="M8.4513 20.7213C16.6357 23.9154 23.6006 24.5375 31.4933 19.5659C31.4354 19.6527 29.8742 21.9657 25.7685 23.1511C26.6359 24.3365 27.8214 25.6954 27.8214 25.6954C30.4525 25.6954 33.0257 24.9437 35.2519 23.498C36.9867 22.3415 37.9697 20.3465 37.7673 18.2648C37.4204 14.7085 36.5818 11.239 35.2808 7.91406C33.6328 3.57716 29.6718 0.570187 25.0746 0.136462C24.6698 0.107536 24.3807 0.107536 24.2073 0.107536L23.7447 0.570101C29.0357 2.07359 31.6668 4.41551 31.7246 4.50229C23.6001 0.396627 14.001 0.338861 5.81865 4.32882C5.81865 4.32882 8.42082 1.75557 14.1744 0.396628L13.8275 0.0496826C13.2203 0.0496826 12.642 0.107535 12.0349 0.194229C7.7847 0.917046 4.22847 3.83724 2.69605 7.85613C1.36604 11.3257 0.498677 14.9687 0.180658 18.6695C0.00718537 20.6356 0.932402 22.5728 2.55151 23.7004C4.69103 25.1171 7.23535 25.8689 9.8086 25.8689C9.8086 25.8689 10.8494 24.5099 11.8904 23.2956C7.9871 22.1391 6.39692 19.8261 6.36799 19.7393L7.10257 20.1144C7.5417 20.3388 7.99191 20.542 8.4513 20.7213ZM12.9891 18.207C11.1097 18.1491 9.63513 16.5589 9.69298 14.6507C9.75084 12.8581 11.1965 11.4124 12.9891 11.3546C14.8684 11.4124 16.343 13.0026 16.2851 14.9109C16.1983 16.7036 14.7816 18.1492 12.9891 18.207ZM24.7854 18.207C22.9061 18.1491 21.4315 16.5589 21.4894 14.6507C21.5472 12.8581 22.9929 11.4124 24.7854 11.3546C26.6648 11.4124 28.1394 13.0026 28.0815 14.9109C28.0238 16.7036 26.578 18.1492 24.7854 18.207Z" fill="url(#paint0_linear_40_374)"/>
<defs>
<linearGradient id="paint0_linear_40_374" x1="18.9767" y1="0.0496826" x2="18.9767" y2="25.8689" gradientUnits="userSpaceOnUse">
<stop stop-color="#216933"/>
<stop offset="1" stop-color="#E9EC42"/>
</linearGradient>
</defs>
</svg>
