<svg width="32" height="31" viewBox="0 0 32 31" fill="none" xmlns="http://www.w3.org/2000/svg">
<path d="M24.7514 0.152588H7.97139C6.11777 0.154808 4.34071 0.892141 3.03 2.20285C1.71929 3.51356 0.981957 5.29063 0.979736 7.14425V18.3309C0.98177 19.9421 1.5392 21.5033 2.55806 22.7514C3.57692 23.9995 4.99492 24.8582 6.57306 25.1827V29.5176C6.57302 29.7707 6.64171 30.0191 6.7718 30.2363C6.90189 30.4535 7.08849 30.6313 7.31171 30.7507C7.53493 30.8701 7.78638 30.9267 8.03924 30.9145C8.2921 30.9022 8.53688 30.8215 8.74747 30.681L16.7809 25.3226H24.7514C26.605 25.3203 28.3821 24.583 29.6928 23.2723C31.0035 21.9616 31.7408 20.1845 31.743 18.3309V7.14425C31.7408 5.29063 31.0035 3.51356 29.6928 2.20285C28.3821 0.892141 26.605 0.154808 24.7514 0.152588ZM21.9547 16.9326H10.7681C10.3972 16.9326 10.0415 16.7852 9.77929 16.523C9.51705 16.2608 9.36972 15.9051 9.36972 15.5342C9.36972 15.1634 9.51705 14.8077 9.77929 14.5455C10.0415 14.2832 10.3972 14.1359 10.7681 14.1359H21.9547C22.3256 14.1359 22.6812 14.2832 22.9435 14.5455C23.2057 14.8077 23.353 15.1634 23.353 15.5342C23.353 15.9051 23.2057 16.2608 22.9435 16.523C22.6812 16.7852 22.3256 16.9326 21.9547 16.9326ZM24.7514 11.3392H7.97139C7.60053 11.3392 7.24486 11.1919 6.98262 10.9297C6.72039 10.6674 6.57306 10.3118 6.57306 9.94091C6.57306 9.57005 6.72039 9.21438 6.98262 8.95214C7.24486 8.68991 7.60053 8.54258 7.97139 8.54258H24.7514C25.1222 8.54258 25.4779 8.68991 25.7401 8.95214C26.0024 9.21438 26.1497 9.57005 26.1497 9.94091C26.1497 10.3118 26.0024 10.6674 25.7401 10.9297C25.4779 11.1919 25.1222 11.3392 24.7514 11.3392Z" fill="white"/>
<path d="M24.7514 0.152588H7.97139C6.11777 0.154808 4.34071 0.892141 3.03 2.20285C1.71929 3.51356 0.981957 5.29063 0.979736 7.14425V18.3309C0.98177 19.9421 1.5392 21.5033 2.55806 22.7514C3.57692 23.9995 4.99492 24.8582 6.57306 25.1827V29.5176C6.57302 29.7707 6.64171 30.0191 6.7718 30.2363C6.90189 30.4535 7.08849 30.6313 7.31171 30.7507C7.53493 30.8701 7.78638 30.9267 8.03924 30.9145C8.2921 30.9022 8.53688 30.8215 8.74747 30.681L16.7809 25.3226H24.7514C26.605 25.3203 28.3821 24.583 29.6928 23.2723C31.0035 21.9616 31.7408 20.1845 31.743 18.3309V7.14425C31.7408 5.29063 31.0035 3.51356 29.6928 2.20285C28.3821 0.892141 26.605 0.154808 24.7514 0.152588ZM21.9547 16.9326H10.7681C10.3972 16.9326 10.0415 16.7852 9.77929 16.523C9.51705 16.2608 9.36972 15.9051 9.36972 15.5342C9.36972 15.1634 9.51705 14.8077 9.77929 14.5455C10.0415 14.2832 10.3972 14.1359 10.7681 14.1359H21.9547C22.3256 14.1359 22.6812 14.2832 22.9435 14.5455C23.2057 14.8077 23.353 15.1634 23.353 15.5342C23.353 15.9051 23.2057 16.2608 22.9435 16.523C22.6812 16.7852 22.3256 16.9326 21.9547 16.9326ZM24.7514 11.3392H7.97139C7.60053 11.3392 7.24486 11.1919 6.98262 10.9297C6.72039 10.6674 6.57306 10.3118 6.57306 9.94091C6.57306 9.57005 6.72039 9.21438 6.98262 8.95214C7.24486 8.68991 7.60053 8.54258 7.97139 8.54258H24.7514C25.1222 8.54258 25.4779 8.68991 25.7401 8.95214C26.0024 9.21438 26.1497 9.57005 26.1497 9.94091C26.1497 10.3118 26.0024 10.6674 25.7401 10.9297C25.4779 11.1919 25.1222 11.3392 24.7514 11.3392Z" fill="url(#paint0_linear_40_376)"/>
<defs>
<linearGradient id="paint0_linear_40_376" x1="16.3614" y1="0.152588" x2="16.3614" y2="30.9161" gradientUnits="userSpaceOnUse">
<stop stop-color="#216933"/>
<stop offset="1" stop-color="#E9EC42"/>
</linearGradient>
</defs>
</svg>
